<svg width="16" height="17" viewBox="0 0 16 17" fill="none" xmlns="http://www.w3.org/2000/svg">
<path d="M7.96481 0.853271C3.7085 0.853271 0.258179 4.30359 0.258179 8.5599C0.258179 12.8162 3.7085 16.2665 7.96481 16.2665C12.2211 16.2665 15.6714 12.8162 15.6714 8.5599C15.6714 4.30359 12.2211 0.853271 7.96481 0.853271ZM6.07829 11.7541H4.5177V6.73199H6.07829V11.7541ZM5.28836 6.11546C4.79546 6.11546 4.47676 5.76625 4.47676 5.33436C4.47676 4.89363 4.80509 4.55486 5.30843 4.55486C5.81177 4.55486 6.12003 4.89363 6.12967 5.33436C6.12967 5.76625 5.81177 6.11546 5.28836 6.11546ZM11.778 11.7541H10.2174V8.97092C10.2174 8.32308 9.99101 7.88316 9.42666 7.88316C8.99557 7.88316 8.73949 8.18099 8.6263 8.46758C8.58455 8.56954 8.57411 8.71404 8.57411 8.85773V11.7533H7.01272V8.33352C7.01272 7.70655 6.99265 7.18234 6.97178 6.73118H8.32766L8.39911 7.42879H8.43042C8.63593 7.10126 9.13927 6.61799 9.98138 6.61799C11.0081 6.61799 11.778 7.30597 11.778 8.78468V11.7541Z" fill="#3D445C"/>
</svg>
