<svg width="16" height="17" viewBox="0 0 16 17" fill="none" xmlns="http://www.w3.org/2000/svg">
<path d="M8.04806 0.853271C3.79175 0.853271 0.341431 4.30359 0.341431 8.5599C0.341431 12.8162 3.79175 16.2665 8.04806 16.2665C12.3044 16.2665 15.7547 12.8162 15.7547 8.5599C15.7547 4.30359 12.3044 0.853271 8.04806 0.853271ZM11.1829 7.16629C11.1861 7.23211 11.1869 7.29794 11.1869 7.36216C11.1869 9.3691 9.66083 11.6819 6.86879 11.6819C6.04377 11.6833 5.23592 11.4463 4.54235 10.9995C4.66035 11.014 4.78157 11.0196 4.9044 11.0196C5.61566 11.0196 6.26992 10.778 6.78931 10.3702C6.47279 10.3639 6.16609 10.2591 5.91197 10.0703C5.65784 9.88154 5.46895 9.61817 5.37161 9.31692C5.59892 9.36014 5.83309 9.35108 6.05638 9.29043C5.71283 9.22096 5.40388 9.0348 5.18192 8.76354C4.95996 8.49227 4.83866 8.15259 4.83857 7.80208V7.78362C5.04328 7.89681 5.27769 7.96585 5.52655 7.97388C5.20447 7.75948 4.97648 7.43013 4.88918 7.0532C4.80189 6.67627 4.86189 6.28023 5.05693 5.94607C5.43821 6.41489 5.91369 6.79841 6.4526 7.07181C6.99151 7.3452 7.58183 7.50238 8.18534 7.53315C8.10861 7.20748 8.14163 6.86557 8.27927 6.5606C8.4169 6.25562 8.65144 6.00466 8.94642 5.84674C9.2414 5.68881 9.58029 5.63277 9.91041 5.68731C10.2405 5.74186 10.5434 5.90394 10.7719 6.14837C11.1116 6.08116 11.4374 5.95655 11.7352 5.7799C11.622 6.13162 11.3849 6.43028 11.0681 6.6204C11.369 6.58416 11.6628 6.50326 11.9399 6.38037C11.7364 6.68534 11.48 6.95149 11.1829 7.16629Z" fill="#3D445C"/>
</svg>
