<svg width="14" height="15" viewBox="0 0 14 15" fill="none" xmlns="http://www.w3.org/2000/svg">
<path d="M13.5141 10.8583L9.80129 7.14546L10.8516 6.09517L8.34292 3.5865L7.29262 4.6368L3.57979 0.923965L0.415527 4.08823L4.12836 7.80106L0.94402 10.9854V13.4941H3.45269L6.63703 10.3097L10.3499 14.0226L13.5141 10.8583ZM5.07831 6.85111L2.30874 4.08823L3.57979 2.81717L4.4294 3.66678L3.63331 4.46286L4.57657 5.40612L5.37266 4.61004L6.34268 5.58005L5.07831 6.85111ZM7.58698 9.35978L8.85803 8.08872L9.82805 9.05874L9.03197 9.85483L9.97523 10.7981L10.7713 10.002L11.6209 10.8516L10.3499 12.1227L7.58698 9.35978ZM9.06073 2.8727L10.7586 1.17416L13.2659 3.68149L11.5681 5.38003L9.06073 2.8727Z" fill="#F9995D"/>
</svg>
