<svg width="15" height="15" viewBox="0 0 15 15" fill="none" xmlns="http://www.w3.org/2000/svg">
<path d="M13.4725 4.79736C13.8273 4.79736 14.1676 4.93832 14.4185 5.18923C14.6695 5.44015 14.8104 5.78046 14.8104 6.13531V8.81123C14.8104 9.16607 14.6695 9.50639 14.4185 9.7573C14.1676 10.0082 13.8273 10.1492 13.4725 10.1492H12.762C12.5989 11.4425 11.9694 12.6319 10.9917 13.4941C10.014 14.3563 8.75523 14.832 7.45166 14.832V13.4941C8.5162 13.4941 9.53714 13.0712 10.2899 12.3184C11.0426 11.5657 11.4655 10.5447 11.4655 9.4802V5.46633C11.4655 4.40179 11.0426 3.38085 10.2899 2.6281C9.53714 1.87535 8.5162 1.45246 7.45166 1.45246C6.38711 1.45246 5.36617 1.87535 4.61342 2.6281C3.86068 3.38085 3.43779 4.40179 3.43779 5.46633V10.1492H1.43085C1.076 10.1492 0.735689 10.0082 0.484774 9.7573C0.233858 9.50639 0.0928955 9.16607 0.0928955 8.81123V6.13531C0.0928955 5.78046 0.233858 5.44015 0.484774 5.18923C0.735689 4.93832 1.076 4.79736 1.43085 4.79736H2.14131C2.30456 3.50415 2.9341 2.31496 3.91181 1.45292C4.88951 0.590872 6.14819 0.115227 7.45166 0.115227C8.75513 0.115227 10.0138 0.590872 10.9915 1.45292C11.9692 2.31496 12.5988 3.50415 12.762 4.79736H13.4725ZM4.61519 10.0054L5.32431 8.87076C5.96189 9.27017 6.6993 9.48142 7.45166 9.4802C8.20401 9.48142 8.94142 9.27017 9.57901 8.87076L10.2881 10.0054C9.43803 10.538 8.45482 10.8197 7.45166 10.8182C6.4485 10.8197 5.46529 10.538 4.61519 10.0054Z" fill="#F9995D"/>
</svg>
