<svg width="11" height="8" viewBox="0 0 11 8" fill="none" xmlns="http://www.w3.org/2000/svg">
<path fill-rule="evenodd" clip-rule="evenodd" d="M10.4756 4.37923C10.4756 4.2787 10.4363 4.18229 10.3665 4.11121C10.2966 4.04013 10.2018 4.00019 10.1029 4.00019L1.31259 4.00019L3.65832 1.61531C3.69297 1.58007 3.72046 1.53823 3.73921 1.49218C3.75796 1.44614 3.76762 1.39679 3.76762 1.34695C3.76762 1.29711 3.75796 1.24776 3.73921 1.20172C3.72046 1.15567 3.69297 1.11384 3.65832 1.07859C3.62367 1.04335 3.58253 1.0154 3.53726 0.996326C3.49198 0.977254 3.44346 0.967438 3.39445 0.967438C3.34545 0.967438 3.29692 0.977254 3.25165 0.996326C3.20637 1.0154 3.16524 1.04335 3.13058 1.07859L0.149043 4.11087C0.114336 4.14608 0.086799 4.18791 0.0680104 4.23396C0.0492219 4.28 0.0395507 4.32937 0.0395507 4.37923C0.0395507 4.42908 0.0492219 4.47845 0.0680104 4.5245C0.086799 4.57055 0.114336 4.61237 0.149043 4.64758L3.13058 7.67986C3.16524 7.7151 3.20637 7.74306 3.25165 7.76213C3.29692 7.7812 3.34545 7.79102 3.39445 7.79102C3.44346 7.79102 3.49198 7.7812 3.53725 7.76213C3.58253 7.74306 3.62367 7.7151 3.65832 7.67986C3.69297 7.64462 3.72046 7.60278 3.73921 7.55674C3.75796 7.51069 3.76761 7.46134 3.76761 7.4115C3.76761 7.36166 3.75796 7.31231 3.73921 7.26627C3.72046 7.22022 3.69297 7.17839 3.65832 7.14315L1.31259 4.75826L10.1029 4.75826C10.2018 4.75826 10.2966 4.71833 10.3665 4.64724C10.4363 4.57616 10.4756 4.47975 10.4756 4.37923Z" fill="white"/>
</svg>
