<svg width="12" height="8" viewBox="0 0 12 8" fill="none" xmlns="http://www.w3.org/2000/svg">
<path fill-rule="evenodd" clip-rule="evenodd" d="M0.742648 4.37923C0.742648 4.47975 0.781914 4.57616 0.851808 4.64724C0.921701 4.71833 1.0165 4.75826 1.11534 4.75826L9.90567 4.75826L7.55994 7.14315C7.52529 7.17839 7.49781 7.22022 7.47905 7.26627C7.4603 7.31231 7.45065 7.36166 7.45065 7.4115C7.45065 7.46134 7.4603 7.51069 7.47905 7.55674C7.49781 7.60278 7.52529 7.64462 7.55994 7.67986C7.5946 7.7151 7.63573 7.74305 7.68101 7.76213C7.72628 7.7812 7.77481 7.79102 7.82381 7.79102C7.87282 7.79102 7.92134 7.7812 7.96661 7.76213C8.01189 7.74305 8.05303 7.7151 8.08768 7.67986L11.0692 4.64758C11.1039 4.61237 11.1315 4.57055 11.1503 4.5245C11.169 4.47845 11.1787 4.42908 11.1787 4.37923C11.1787 4.32937 11.169 4.28 11.1503 4.23396C11.1315 4.18791 11.1039 4.14608 11.0692 4.11087L8.08768 1.07859C8.05303 1.04335 8.01189 1.0154 7.96661 0.996326C7.92134 0.977253 7.87282 0.967437 7.82381 0.967437C7.77481 0.967437 7.72628 0.977253 7.68101 0.996326C7.63573 1.0154 7.5946 1.04335 7.55994 1.07859C7.52529 1.11384 7.49781 1.15567 7.47905 1.20172C7.4603 1.24776 7.45065 1.29711 7.45065 1.34695C7.45065 1.39679 7.4603 1.44614 7.47905 1.49218C7.49781 1.53823 7.52529 1.58007 7.55994 1.61531L9.90567 4.00019L1.11534 4.00019C1.0165 4.00019 0.921701 4.04012 0.851808 4.11121C0.781914 4.18229 0.742648 4.2787 0.742648 4.37923Z" fill="white"/>
</svg>
