<svg width="17" height="17" viewBox="0 0 17 17" fill="none" xmlns="http://www.w3.org/2000/svg">
<g clip-path="url(#clip0_340_372)">
<rect x="0.0598145" y="7.54593" width="9.3657" height="9.3657" fill="#7595FD"/>
<path d="M12.7644 2.19412H6.0873C5.34407 2.19412 4.74265 2.79553 4.74265 3.53877V7.3098L1.59712 10.4152C1.50287 10.5084 1.43844 10.6275 1.412 10.7574C1.38556 10.8873 1.39831 11.0221 1.44863 11.1448C1.49894 11.2674 1.58456 11.3723 1.69461 11.4462C1.80466 11.5201 1.93418 11.5597 2.06674 11.5598V14.9047C2.06674 15.0821 2.13722 15.2523 2.26268 15.3778C2.38814 15.5032 2.5583 15.5737 2.73572 15.5737H13.4394C13.6168 15.5737 13.787 15.5032 13.9124 15.3778C14.0379 15.2523 14.1084 15.0821 14.1084 14.9047V3.5381C14.1084 2.79553 13.5076 2.19412 12.7644 2.19412ZM7.36639 10.9651V14.2357H3.4047V10.5109L5.40294 8.53804L7.36639 10.547V10.9651V10.9651ZM8.75652 6.87697H7.41857V5.53901H8.75652V6.87697ZM11.4324 12.2288H10.0945V10.8908H11.4324V12.2288ZM11.4324 9.55288H10.0945V8.21493H11.4324V9.55288ZM11.4324 6.87697H10.0945V5.53901H11.4324V6.87697Z" fill="#292E3D"/>
<path d="M4.74268 10.8908H6.08063V12.2288H4.74268V10.8908Z" fill="#14171F"/>
</g>
<defs>
<clipPath id="clip0_340_372">
<rect width="16.0555" height="16.0555" fill="white" transform="translate(0.0598145 0.85614)"/>
</clipPath>
</defs>
</svg>
