<svg width="17" height="17" viewBox="0 0 17 17" fill="none" xmlns="http://www.w3.org/2000/svg">
<g clip-path="url(#clip0_340_397)">
<rect x="0.171631" y="7.4635" width="9.3657" height="9.3657" fill="#7595FD"/>
<path d="M4.42627 13.3371L4.59351 14.8222L5.67726 13.792L7.53033 8.70779C7.07542 8.59406 6.67404 8.36661 6.34624 8.05219L4.42627 13.3371ZM10.0524 8.05219C9.72458 8.36661 9.3165 8.59406 8.86829 8.70779L10.7214 13.792L11.8051 14.8222L11.979 13.3371L10.0524 8.05219V8.05219ZM10.1661 6.52692C10.3668 5.48331 9.76472 4.56012 8.86829 4.23901V3.44962C8.86829 3.08168 8.56725 2.78064 8.19931 2.78064C7.83137 2.78064 7.53033 3.08168 7.53033 3.44962V4.23901C6.75431 4.51998 6.19237 5.25586 6.19237 6.12553C6.19237 7.35645 7.30288 8.33316 8.57394 8.09902C9.36333 7.95184 10.0122 7.31631 10.1661 6.52692V6.52692ZM8.19931 6.79451C7.83137 6.79451 7.53033 6.49347 7.53033 6.12553C7.53033 5.75759 7.83137 5.45655 8.19931 5.45655C8.56725 5.45655 8.86829 5.75759 8.86829 6.12553C8.86829 6.49347 8.56725 6.79451 8.19931 6.79451Z" fill="#292E3D"/>
</g>
<defs>
<clipPath id="clip0_340_397">
<rect width="16.0555" height="16.0555" fill="white" transform="translate(0.171631 0.773743)"/>
</clipPath>
</defs>
</svg>
