<svg width="17" height="17" viewBox="0 0 17 17" fill="none" xmlns="http://www.w3.org/2000/svg">
<g clip-path="url(#clip0_340_379)">
<rect x="0.171631" y="7.54593" width="9.3657" height="9.3657" fill="#7595FD"/>
<path d="M13.2167 2.8631C12.7733 2.86346 12.3481 3.03977 12.0345 3.35334C11.721 3.66691 11.5446 4.0921 11.5443 4.53555C11.5443 4.77437 11.5965 5.00116 11.6874 5.20787L10.3796 6.67895C9.9353 6.37228 9.40823 6.20802 8.86837 6.20799C8.37333 6.20799 7.91575 6.35249 7.51771 6.58664L5.99645 5.06605L5.98106 5.08143C6.11218 4.81518 6.19246 4.51882 6.19246 4.20106C6.19246 3.80412 6.07475 3.4161 5.85423 3.08606C5.63371 2.75603 5.32027 2.49879 4.95355 2.34689C4.58683 2.19499 4.1833 2.15525 3.79399 2.23269C3.40468 2.31012 3.04708 2.50127 2.76641 2.78194C2.48573 3.06262 2.29459 3.42022 2.21715 3.80952C2.13971 4.19883 2.17946 4.60236 2.33136 4.96908C2.48326 5.3358 2.74049 5.64924 3.07053 5.86976C3.40057 6.09029 3.78859 6.20799 4.18552 6.20799C4.50329 6.20799 4.79898 6.12772 5.0659 5.9966L5.05051 6.01198L6.57177 7.53257C6.32601 7.94067 6.19497 8.40753 6.19246 8.88391C6.19246 9.55088 6.44667 10.1543 6.8514 10.6239L5.12745 12.3472C4.93422 12.2699 4.72814 12.2297 4.52001 12.2288C3.59816 12.2288 2.84757 12.9787 2.84757 13.9012C2.84757 14.8238 3.59816 15.5737 4.52001 15.5737C5.44187 15.5737 6.19246 14.8238 6.19246 13.9012C6.19246 13.6865 6.14831 13.4825 6.07405 13.2931L7.97261 11.3946C8.25425 11.4949 8.55262 11.5598 8.86837 11.5598C10.3441 11.5598 11.5443 10.3597 11.5443 8.88391C11.5443 8.45844 11.4352 8.06173 11.258 7.70383L12.6742 6.10965C12.8454 6.16852 13.0261 6.20799 13.2167 6.20799C14.1393 6.20799 14.8892 5.45807 14.8892 4.53555C14.8892 3.61303 14.1393 2.8631 13.2167 2.8631ZM8.86837 10.2219C8.13049 10.2219 7.53042 9.62179 7.53042 8.88391C7.53042 8.14602 8.13049 7.54595 8.86837 7.54595C9.60626 7.54595 10.2063 8.14602 10.2063 8.88391C10.2063 9.62179 9.60626 10.2219 8.86837 10.2219Z" fill="white"/>
</g>
<defs>
<clipPath id="clip0_340_379">
<rect width="16.0555" height="16.0555" fill="white" transform="translate(0.171631 0.85614)"/>
</clipPath>
</defs>
</svg>
