<svg width="45" height="10" viewBox="0 0 45 10" fill="none" xmlns="http://www.w3.org/2000/svg">
<path d="M8.48537 1.29137L8.11208 2.8929H5.54722L4.07814 9.23883H2.00699L3.47606 2.8929H0.887115L1.26041 1.29137H8.48537ZM7.54161 9.23883L9.52848 0.665204H11.5755L10.6724 4.59077L10.4677 4.87977C10.5721 4.5426 10.7286 4.24156 10.9373 3.97665C11.1461 3.71173 11.407 3.499 11.72 3.33844C12.0331 3.17789 12.3904 3.09761 12.7918 3.09761C13.1931 3.09761 13.5343 3.18993 13.8153 3.37457C14.1043 3.5592 14.305 3.82011 14.4174 4.15727C14.5378 4.49444 14.5458 4.89582 14.4415 5.36143L13.5383 9.23883H11.4913L12.3221 5.68656C12.3944 5.36545 12.3663 5.11659 12.2378 4.93998C12.1094 4.75534 11.9007 4.66302 11.6117 4.66302C11.3949 4.66302 11.2023 4.7152 11.0337 4.81956C10.8731 4.91589 10.7326 5.06441 10.6122 5.2651C10.4998 5.45776 10.4115 5.6986 10.3473 5.9876L9.58868 9.23883H7.54161ZM18.2752 9.34721C17.6811 9.34721 17.1593 9.23482 16.7098 9.01004C16.2602 8.77724 15.911 8.45613 15.6622 8.04671C15.4133 7.6373 15.2889 7.15965 15.2889 6.61376C15.2889 5.93943 15.4254 5.34136 15.6983 4.81956C15.9793 4.28973 16.3726 3.87229 16.8784 3.56723C17.3921 3.26218 18.0023 3.10965 18.7087 3.10965C19.2947 3.10965 19.7924 3.22204 20.2019 3.44682C20.6193 3.66356 20.9364 3.97263 21.1531 4.37402C21.3699 4.77541 21.4783 5.24904 21.4783 5.79493C21.4783 5.94746 21.4702 6.10801 21.4542 6.27659C21.4381 6.44518 21.406 6.60975 21.3579 6.7703H16.6135V5.66247H20.0212L19.4553 5.97555C19.4874 5.86317 19.5075 5.76683 19.5155 5.68656C19.5235 5.60628 19.5275 5.53001 19.5275 5.45776C19.5275 5.24904 19.4914 5.07645 19.4192 4.93998C19.3469 4.8035 19.2466 4.70316 19.1181 4.63894C18.9897 4.56669 18.8371 4.53056 18.6605 4.53056C18.3715 4.53056 18.1307 4.5988 17.938 4.73527C17.7534 4.87174 17.6049 5.05236 17.4925 5.27714C17.3801 5.49389 17.2998 5.73071 17.2517 5.9876C17.2115 6.24448 17.1915 6.49334 17.1915 6.73418C17.1915 6.99106 17.2396 7.20781 17.336 7.38442C17.4403 7.56103 17.5768 7.6975 17.7454 7.79384C17.922 7.88214 18.1267 7.9263 18.3595 7.9263C18.6485 7.9263 18.8813 7.86207 19.0579 7.73363C19.2345 7.59716 19.371 7.42858 19.4673 7.22788L21.1531 7.89017C21.0167 8.19522 20.8039 8.45613 20.5149 8.67287C20.234 8.88962 19.9008 9.05821 19.5155 9.17862C19.1382 9.29101 18.7248 9.34721 18.2752 9.34721ZM22.7671 9.23883V1.29137H26.6325C27.6118 1.2994 28.3343 1.48805 28.7999 1.85732C29.2656 2.21857 29.4984 2.74439 29.4984 3.43477C29.4984 3.88433 29.3659 4.27367 29.101 4.60281C28.8361 4.92392 28.4307 5.12863 27.8848 5.21693V5.22897C28.4949 5.30925 28.9485 5.52199 29.2455 5.86718C29.5505 6.20434 29.7031 6.61376 29.7031 7.09542C29.7031 7.77778 29.4622 8.30761 28.9806 8.68492C28.4989 9.05419 27.7764 9.23883 26.8131 9.23883H22.7671ZM24.766 7.7818H26.4639C26.8412 7.7818 27.1221 7.70553 27.3068 7.55301C27.4914 7.40048 27.5837 7.17972 27.5837 6.89072C27.5837 6.60975 27.4914 6.39701 27.3068 6.25251C27.1221 6.09998 26.8412 6.02372 26.4639 6.02372H24.766V7.7818ZM24.766 4.5426H26.2712C27.0098 4.5426 27.379 4.2536 27.379 3.67561C27.379 3.09761 27.0098 2.80861 26.2712 2.80861H24.766V4.5426ZM33.7201 3.09761C34.3543 3.09761 34.9082 3.22204 35.3818 3.4709C35.8635 3.71173 36.2368 4.06897 36.5017 4.5426C36.7746 5.00821 36.9111 5.57015 36.9111 6.22843C36.9111 6.8867 36.7746 7.45266 36.5017 7.9263C36.2368 8.3919 35.8635 8.74914 35.3818 8.998C34.9082 9.23883 34.3543 9.35925 33.7201 9.35925C33.1019 9.35925 32.552 9.23883 32.0704 8.998C31.5887 8.74914 31.2114 8.3919 30.9385 7.9263C30.6735 7.45266 30.5411 6.8867 30.5411 6.22843C30.5411 5.57015 30.6735 5.00821 30.9385 4.5426C31.2114 4.06897 31.5887 3.71173 32.0704 3.4709C32.552 3.22204 33.1019 3.09761 33.7201 3.09761ZM33.7201 4.55464C33.4873 4.55464 33.2866 4.61084 33.118 4.72323C32.9494 4.83561 32.821 5.01624 32.7327 5.2651C32.6444 5.51396 32.6002 5.83507 32.6002 6.22843C32.6002 6.62179 32.6444 6.9429 32.7327 7.19176C32.821 7.43259 32.9494 7.61321 33.118 7.73363C33.2866 7.84602 33.4873 7.90221 33.7201 7.90221C33.9609 7.90221 34.1656 7.84602 34.3342 7.73363C34.5028 7.61321 34.6312 7.43259 34.7195 7.19176C34.8078 6.9429 34.852 6.62179 34.852 6.22843C34.852 5.83507 34.8078 5.51396 34.7195 5.2651C34.6312 5.01624 34.5028 4.83561 34.3342 4.72323C34.1656 4.61084 33.9609 4.55464 33.7201 4.55464ZM39.5035 3.21803L40.9726 5.92739L41.6469 5.86718L44.0191 9.23883H41.671L40.1538 6.49334H39.4433L37.1434 3.21803H39.5035ZM43.971 3.21803L41.6951 6.46926L40.9365 6.42109L39.359 9.23883H37.0591L39.4794 5.8431L40.1779 5.93943L41.671 3.21803H43.971Z" fill="#2947A9"/>
</svg>
